<svg aria-hidden="true" style="position: absolute; width: 0; height: 0; overflow: hidden;" version="1.1" xmlns="http://www.w3.org/2000/svg" xmlns:xlink="http://www.w3.org/1999/xlink">
<defs>
<symbol id="icon-check" viewBox="0 0 32 32">
<path d="M12.6 23.8l-7.467-7.467 1.433-1.433 6.033 6.033 12.8-12.8 1.433 1.433z"></path>
</symbol>
<symbol id="icon-close" viewBox="0 0 32 32">
<path d="M8.3 25.1l-1.4-1.4 7.7-7.7-7.7-7.7 1.4-1.4 7.7 7.7 7.7-7.7 1.4 1.4-7.7 7.7 7.7 7.7-1.4 1.4-7.7-7.7z"></path>
</symbol>
<symbol id="icon-expand" viewBox="0 0 32 32">
<path d="M16 20.5l-8-8 1.433-1.433 6.567 6.6 6.567-6.567 1.433 1.433z"></path>
</symbol>
<symbol id="icon-refresh" viewBox="0 0 32 32">
<path d="M16 26.667q-4.433 0-7.55-3.117t-3.117-7.55 3.117-7.55 7.55-3.117q2.833 0 4.967 1.15t3.7 3.15v-4.3h2v8.467h-8.467v-2h5.6q-1.267-2-3.233-3.233t-4.567-1.233q-3.633 0-6.15 2.517t-2.517 6.15 2.517 6.15 6.15 2.517q2.767 0 5.067-1.583t3.2-4.183h2.067q-0.967 3.5-3.833 5.633t-6.5 2.133z"></path>
</symbol>
<symbol id="icon-reload" viewBox="0 0 32 32">
<path d="M16 26.667q-4.433 0-7.55-3.117t-3.117-7.55 3.117-7.55 7.55-3.117q2.833 0 4.967 1.15t3.7 3.15v-4.3h2v8.467h-8.467v-2h5.6q-1.267-2-3.233-3.233t-4.567-1.233q-3.633 0-6.15 2.517t-2.517 6.15 2.517 6.15 6.15 2.517q2.767 0 5.067-1.583t3.2-4.183h2.067q-0.967 3.5-3.833 5.633t-6.5 2.133z"></path>
</symbol>
</defs>
</svg>
